<svg width="616" height="519" viewBox="0 0 616 519" fill="none" xmlns="http://www.w3.org/2000/svg">
<g clip-path="url(#clip0_2_3)">
<path d="M134.452 0H410.031V102.083H135.406C123.009 102.083 110.613 112.577 110.613 127.842V389.25C110.613 397.836 118.241 414.055 133.498 414.055H352.817V349.18H457.709V288.121H560.949L560.693 228.971H616V378.498L472.012 519H374.749H127.777L0 390.923V134.768L134.452 0Z" fill="#004063"/>
<path d="M514.923 114.485H457.709V171.728H514.923V114.485Z" fill="#FFA34E"/>
<path d="M616 0H560.693V57.2426H616V0Z" fill="#FFA34E"/>
<path d="M410.031 288.121H352.817V349.18H410.031V288.121Z" fill="#FFA34E"/>
<path d="M514.923 196.533H457.709V288.121H514.923V196.533Z" fill="#FFA34E"/>
<path d="M616 80.1397H560.693V228.971H616V80.1397Z" fill="#FFA34E"/>
<path d="M410.031 209.89H352.817V267.132H410.031V209.89Z" fill="#FFA34E"/>
</g>
<defs>
<clipPath id="clip0_2_3">
<rect width="616" height="519" fill="white"/>
</clipPath>
</defs>
</svg>
